<svg width="234.000000" height="27.898071" viewBox="0 0 234 27.8981" fill="none" xmlns="http://www.w3.org/2000/svg" xmlns:xlink="http://www.w3.org/1999/xlink">
	<desc>
			Created with Pixso.
	</desc>
	<defs/>
	<path id="Vector" d="M10.6497 19.1605L10.6497 27.8981L0 27.8981L0 0L23.2447 0C33.5573 0 36.4808 4.08411 36.4808 9.22388L36.4808 9.82617C36.4808 14.8885 33.4412 19.1605 23.2447 19.1605L10.6497 19.1605ZM10.6497 12.186L21.9736 12.186C24.4108 12.186 25.4995 11.1747 25.4995 9.63831L25.4995 9.52783C25.4995 7.91406 24.4882 6.9801 21.9736 6.9801L10.6497 6.9801L10.6497 12.186Z" fill="#231F20" fill-opacity="1.000000" fill-rule="nonzero"/>
	<path id="Vector" d="M49.529 19.1605L49.529 27.8981L38.8793 27.8981L38.8793 0L62.124 0C72.4366 0 75.3602 4.08411 75.3602 9.22388L75.3602 9.82617C75.3602 14.8885 72.3206 19.1605 62.124 19.1605L49.529 19.1605ZM49.529 12.186L60.8529 12.186C63.2902 12.186 64.3788 11.1747 64.3788 9.63831L64.3788 9.52783C64.3788 7.91406 63.3675 6.9801 60.8529 6.9801L49.529 6.9801L49.529 12.186Z" fill="#231F20" fill-opacity="1.000000" fill-rule="nonzero"/>
	<path id="Vector" d="M89.6075 27.8981L78.9966 27.8981L78.9966 0L89.6075 0L89.6075 27.8981Z" fill="#231F20" fill-opacity="1.000000" fill-rule="nonzero"/>
	<path id="Vector" d="M73.8624 27.8981L62.4335 27.8981L54.8898 12.186L66.3187 12.186L73.8624 27.8981Z" fill="#231F20" fill-opacity="1.000000" fill-rule="nonzero"/>
	<path id="Vector" d="M93.2054 0L113.002 0C129.089 0 133.135 6.63745 133.135 13.1974L133.135 14.3248C133.135 20.6638 129.648 27.8981 113.04 27.8981L93.2054 27.8981L93.2054 0ZM103.85 20.509L111.764 20.509C121.065 20.509 122.076 16.4194 122.076 13.9822L122.076 13.7611C122.076 11.324 121.065 7.31165 111.764 7.31165L103.85 7.31165L103.85 20.509Z" fill="#231F20" fill-opacity="1.000000" fill-rule="nonzero"/>
	<path id="Vector" d="M166.537 0L166.465 6.82532L146.177 6.82532L146.177 10.3125L166.123 10.3125L166.123 17.0991L146.177 17.0991L146.177 20.9236L166.836 20.9236L166.836 27.8981L135.677 27.8981L135.677 0L166.537 0Z" fill="#231F20" fill-opacity="1.000000" fill-rule="nonzero"/>
	<path id="Vector" d="M175.745 1.01685L175.745 0.248657L180.072 0.248657L180.072 1.01685L178.336 1.01685L178.336 5.43262L177.474 5.43262L177.474 1.01685L175.745 1.01685Z" fill="#231F20" fill-opacity="1.000000" fill-rule="nonzero"/>
	<path id="Vector" d="M185.549 3.10034L181.509 3.10034C181.625 4.0675 182.305 4.70862 183.283 4.70862C183.974 4.70862 184.465 4.41016 184.78 4.01782L185.388 4.52625C184.941 5.10095 184.294 5.49341 183.25 5.49341C181.719 5.49341 180.636 4.43225 180.636 2.84619C180.636 1.2821 181.708 0.187866 183.189 0.187866C184.604 0.187866 185.571 1.27112 185.571 2.7522C185.571 2.88477 185.549 3.03406 185.549 3.10034ZM181.531 2.39844L184.709 2.39844C184.582 1.54736 184.029 0.972656 183.178 0.972656C182.349 0.972656 181.691 1.51428 181.531 2.39844Z" fill="#231F20" fill-opacity="1.000000" fill-rule="nonzero"/>
	<path id="Vector" d="M187.698 0.248657L187.698 1.16052L187.71 1.16052C188.102 0.541626 188.765 0.182373 189.55 0.182373C191.02 0.182373 192.07 1.3429 192.07 2.87378C192.07 4.44885 190.976 5.48792 189.55 5.48792C188.732 5.48792 188.091 5.12866 187.71 4.53174L187.698 4.53174L187.698 7.53271L186.836 7.53271L186.836 0.248657L187.698 0.248657ZM191.197 2.87378C191.197 1.72424 190.401 0.972656 189.423 0.972656C188.373 0.972656 187.66 1.81274 187.66 2.87378C187.66 3.96802 188.445 4.70312 189.434 4.70312C190.473 4.70312 191.197 3.91833 191.197 2.87378Z" fill="#231F20" fill-opacity="1.000000" fill-rule="nonzero"/>
	<path id="Vector" d="M194.225 0.248657L194.225 1.16052L194.236 1.16052C194.629 0.541626 195.292 0.182373 196.077 0.182373C197.547 0.182373 198.597 1.3429 198.597 2.87378C198.597 4.44885 197.503 5.48792 196.077 5.48792C195.259 5.48792 194.618 5.12866 194.236 4.53174L194.225 4.53174L194.225 7.53271L193.363 7.53271L193.363 0.248657L194.225 0.248657ZM197.724 2.87378C197.724 1.72424 196.928 0.972656 195.95 0.972656C194.9 0.972656 194.187 1.81274 194.187 2.87378C194.187 3.96802 194.971 4.70312 195.961 4.70312C197.005 4.70312 197.724 3.91833 197.724 2.87378Z" fill="#231F20" fill-opacity="1.000000" fill-rule="nonzero"/>
	<path id="Vector" d="M200.758 0.248657L200.758 4.18359L200.78 4.18359L203.703 0.248657L204.521 0.248657L204.521 5.427L203.659 5.427L203.659 1.58057L203.637 1.58057L200.725 5.43262L199.896 5.43262L199.896 0.248657L200.758 0.248657Z" fill="#231F20" fill-opacity="1.000000" fill-rule="nonzero"/>
	<path id="Vector" d="M205.605 1.01685L205.605 0.248657L209.932 0.248657L209.932 1.01685L208.197 1.01685L208.197 5.43262L207.334 5.43262L207.334 1.01685L205.605 1.01685Z" fill="#231F20" fill-opacity="1.000000" fill-rule="nonzero"/>
	<path id="Vector" d="M210.496 2.8407C210.496 1.354 211.568 0.182373 213.176 0.182373C214.707 0.182373 215.845 1.26562 215.845 2.8407C215.845 4.41577 214.707 5.48792 213.176 5.48792C211.568 5.49341 210.496 4.33276 210.496 2.8407ZM214.961 2.8407C214.961 1.73535 214.176 0.967163 213.176 0.967163C212.093 0.967163 211.38 1.80713 211.38 2.8407C211.38 3.87415 212.104 4.70312 213.176 4.70312C214.165 4.70312 214.961 3.95154 214.961 2.8407Z" fill="#231F20" fill-opacity="1.000000" fill-rule="nonzero"/>
	<path id="Vector" d="M217.99 0.248657L217.99 1.16052L218.001 1.16052C218.393 0.541626 219.056 0.182373 219.841 0.182373C221.311 0.182373 222.361 1.3429 222.361 2.87378C222.361 4.44885 221.267 5.48792 219.841 5.48792C219.023 5.48792 218.382 5.12866 218.001 4.53174L217.99 4.53174L217.99 7.53271L217.127 7.53271L217.127 0.248657L217.99 0.248657ZM221.488 2.87378C221.488 1.72424 220.692 0.972656 219.714 0.972656C218.664 0.972656 217.951 1.81274 217.951 2.87378C217.951 3.96802 218.736 4.70312 219.725 4.70312C220.769 4.70312 221.488 3.91833 221.488 2.87378Z" fill="#231F20" fill-opacity="1.000000" fill-rule="nonzero"/>
	<path id="Vector" d="M224.522 0.248657L224.522 4.18359L224.544 4.18359L227.468 0.248657L228.286 0.248657L228.286 5.427L227.423 5.427L227.423 1.58057L227.401 1.58057L224.489 5.43262L223.66 5.43262L223.66 0.248657L224.522 0.248657Z" fill="#231F20" fill-opacity="1.000000" fill-rule="nonzero"/>
	<path id="Vector" d="M233.994 5.427L233.132 5.427L233.132 3.56458L231.811 3.56458L230.474 5.427L229.496 5.427L230.911 3.48169C230.115 3.27722 229.689 2.7135 229.689 1.95081C229.689 0.917358 230.347 0.248657 231.712 0.248657L234 0.248657L234 5.427L233.994 5.427ZM231.695 0.994751C230.933 0.994751 230.557 1.32629 230.557 1.95081C230.557 2.47034 230.878 2.82397 231.651 2.82397L233.127 2.82397L233.127 0.994751L231.695 0.994751Z" fill="#231F20" fill-opacity="1.000000" fill-rule="nonzero"/>
	<path id="Vector" d="M180.321 17.1213L179.458 17.1213L179.458 15.082C179 15.3031 178.331 15.4412 177.834 15.4412C176.546 15.4412 175.96 14.8553 175.96 13.5179L175.96 11.9429L176.822 11.9429L176.822 13.3246C176.822 14.4519 177.281 14.673 178.055 14.673C178.541 14.673 179.055 14.5459 179.458 14.3635L179.458 11.9374L180.321 11.9374L180.321 17.1213Z" fill="#231F20" fill-opacity="1.000000" fill-rule="nonzero"/>
	<path id="Vector" d="M186.516 14.7946L182.476 14.7946C182.592 15.7617 183.272 16.4028 184.25 16.4028C184.941 16.4028 185.433 16.1044 185.748 15.712L186.356 16.2205C185.908 16.7952 185.261 17.1876 184.217 17.1876C182.686 17.1876 181.603 16.1265 181.603 14.5404C181.603 12.9763 182.675 11.8821 184.156 11.8821C185.571 11.8821 186.538 12.9653 186.538 14.4464C186.538 14.5846 186.516 14.7338 186.516 14.7946ZM182.498 14.0927L185.676 14.0927C185.549 13.2416 184.996 12.6669 184.145 12.6669C183.316 12.6669 182.658 13.2085 182.498 14.0927Z" fill="#231F20" fill-opacity="1.000000" fill-rule="nonzero"/>
	<path id="Vector" d="M187.477 14.5404C187.477 12.9763 188.55 11.8821 190.091 11.8821C190.865 11.8821 191.667 12.2026 192.175 12.8051L191.589 13.3245C191.258 12.9432 190.749 12.6669 190.13 12.6669C189.069 12.6669 188.356 13.446 188.356 14.5404C188.356 15.6456 189.069 16.4028 190.119 16.4028C190.738 16.4028 191.28 16.1376 191.595 15.7451L192.192 16.2867C191.755 16.8063 191.064 17.1931 190.053 17.1931C188.55 17.1876 187.477 16.1155 187.477 14.5404Z" fill="#231F20" fill-opacity="1.000000" fill-rule="nonzero"/>
	<path id="Vector" d="M192.811 12.7111L192.811 11.9429L197.138 11.9429L197.138 12.7111L195.403 12.7111L195.403 17.1268L194.54 17.1268L194.54 12.7111L192.811 12.7111Z" fill="#231F20" fill-opacity="1.000000" fill-rule="nonzero"/>
	<path id="Vector" d="M199.078 11.9429L199.078 14.2198L201.874 14.2198L201.874 11.9429L202.736 11.9429L202.736 17.1212L201.874 17.1212L201.874 14.9603L199.078 14.9603L199.078 17.1212L198.216 17.1212L198.216 11.9429L199.078 11.9429Z" fill="#231F20" fill-opacity="1.000000" fill-rule="nonzero"/>
	<path id="Vector" d="M204.018 14.5404C204.018 13.0537 205.091 11.8821 206.699 11.8821C208.23 11.8821 209.368 12.9653 209.368 14.5404C209.368 16.1155 208.23 17.1876 206.699 17.1876C205.096 17.1876 204.018 16.027 204.018 14.5404ZM208.484 14.5404C208.484 13.4351 207.699 12.6669 206.699 12.6669C205.616 12.6669 204.903 13.5068 204.903 14.5404C204.903 15.5739 205.627 16.4028 206.699 16.4028C207.688 16.4028 208.484 15.6456 208.484 14.5404Z" fill="#231F20" fill-opacity="1.000000" fill-rule="nonzero"/>
	<path id="Vector" d="M210.324 14.5404C210.324 12.9763 211.396 11.8821 212.938 11.8821C213.712 11.8821 214.513 12.2026 215.022 12.8051L214.436 13.3245C214.104 12.9432 213.596 12.6669 212.977 12.6669C211.916 12.6669 211.203 13.446 211.203 14.5404C211.203 15.6456 211.916 16.4028 212.966 16.4028C213.585 16.4028 214.126 16.1376 214.441 15.7451L215.038 16.2867C214.602 16.8063 213.911 17.1931 212.9 17.1931C211.396 17.1876 210.324 16.1155 210.324 14.5404Z" fill="#231F20" fill-opacity="1.000000" fill-rule="nonzero"/>
	<path id="Vector" d="M215.663 12.7111L215.663 11.9429L219.99 11.9429L219.99 12.7111L218.255 12.7111L218.255 17.1268L217.393 17.1268L217.393 12.7111L215.663 12.7111Z" fill="#231F20" fill-opacity="1.000000" fill-rule="nonzero"/>
	<path id="Vector" d="M221.924 11.9429L221.924 15.8778L221.947 15.8778L224.87 11.9429L225.688 11.9429L225.688 17.1212L224.826 17.1212L224.826 13.2693L224.804 13.2693L221.891 17.1212L221.062 17.1212L221.062 11.9429L221.924 11.9429Z" fill="#231F20" fill-opacity="1.000000" fill-rule="nonzero"/>
</svg>
